---
layout: anime

title: Usagi Drop
image: https://i.imgur.com/P2ruM1Q.jpg
mal: 10162
anidb: 8211
r720: false
r1080: true

desc: >-
  This show was one of those heart warming, relaxing anime that takes a nice break from the mainstream cliches. I recommend it if you're down for something relaxing.
  <br><br>
  Also surprise, this is a collab. Scyrous handled the encodes (and offered a little help with syncing), while I worked on the subtitles, muxing, and the release. Subtitles come from Doki, with some signs and preview translations from Chihiro, modified by me. Shout out to Moodkiller too.
  <br><br>
  Subtitle modifications include font changes, op/ed style changes, majority of signs updated to look nicer, and syncing of course.
  <br><br>
  Hopefully after I lost count of how many times I remuxed, everything turned out nicely.
status: Complete
groups: SCY, Doki, Chihiro
vidinfo: .mkv, h264 10-bit

size1080: ~1.2 GB / Episode @ 1080p (1920x1080) [SCY]
audio1080a: Japanese 2ch FLAC (Main Dialogue) [SCY]
subtitle1: English Dialogue (.ass) [(Modified) Doki]

nyaa1080: https://nyaa.si/view/1052996
anidex1080: https://anidex.info/torrent/160927
at1080: https://animetosho.org/view/cyc-scy-usagi-drop-bunny-specials-bd-1080p.d160927
ant1080: https://animetorrents.me/torrent-details.php?torid=37128
ab1080: https://animebytes.tv/torrents.php?id=8310&torrentid=373570
abs1080: https://animebytes.tv/torrents.php?id=9350&torrentid=373571
abstype1080: Specials

github: https://github.com/cyc-anime/Usagi-Drop
---
General
Unique ID                                : 187327403990886856147612660329351632072 (0x8CEDF217C25E4550823ABE497E6654C8)
Complete name                            : [CyC-SCY] Usagi Drop 01 (BD 1080p Hi10 x264 FLAC) [9250325D].mkv
Format                                   : Matroska
Format version                           : Version 4 / Version 2
File size                                : 1.35 GiB
Duration                                 : 23 min 26 s
Overall bit rate mode                    : Variable
Overall bit rate                         : 8 239 kb/s
Movie name                               : The Bellflower Girl
Encoded date                             : UTC 2018-07-01 17:57:37
Writing application                      : mkvmerge v9.7.1 ('Pandemonium') 64bit
Writing library                          : libebml v1.3.4 + libmatroska v1.4.5
Attachments                              : AVGARDNEclipse.ttf / corpmarugo_v1.ttf / Vesta-Bold.otf / FRABK.TTF / PoplarStd.otf / HANDWRITTEN_CRYSTAL_V2.TTF

Video
ID                                       : 1
Format                                   : AVC
Format/Info                              : Advanced Video Codec
Format profile                           : High 10@L5
Format settings                          : CABAC / 6 Ref Frames
Format settings, CABAC                   : Yes
Format settings, RefFrames               : 6 frames
Codec ID                                 : V_MPEG4/ISO/AVC
Duration                                 : 23 min 26 s
Bit rate                                 : 7 615 kb/s
Width                                    : 1 920 pixels
Height                                   : 1 080 pixels
Display aspect ratio                     : 16:9
Frame rate mode                          : Constant
Frame rate                               : 23.976 (23976/1000) FPS
Original frame rate                      : 23.976 (24000/1001) FPS
Color space                              : YUV
Chroma subsampling                       : 4:2:0
Bit depth                                : 10 bits
Scan type                                : Progressive
Bits/(Pixel*Frame)                       : 0.153
Stream size                              : 1.25 GiB (92%)
Title                                    : SCY
Writing library                          : x264 core 152 r2851 ba24899 (DJATOM's build)
Encoding settings                        : cabac=1 / ref=6 / deblock=1:1:-1 / analyse=0x3:0x133 / me=umh / subme=11 / psy=1 / psy_rd=0.80:0.00 / mixed_ref=1 / me_range=32 / chroma_me=1 / trellis=2 / 8x8dct=1 / cqm=0 / deadzone=21,11 / fast_pskip=1 / chroma_qp_offset=-3 / threads=12 / lookahead_threads=3 / sliced_threads=0 / nr=0 / decimate=1 / interlaced=0 / bluray_compat=0 / constrained_intra=0 / bframes=16 / b_pyramid=2 / b_adapt=2 / b_bias=0 / direct=1 / weightb=1 / open_gop=0 / weightp=2 / keyint=250 / keyint_min=23 / scenecut=40 / intra_refresh=0 / rc=crf / mbtree=0 / crf=15.5000 / qcomp=0.72 / qpmin=0 / qpmax=81 / qpstep=4 / ip_ratio=1.40 / pb_ratio=1.30 / aq=1:0.80
Language                                 : Japanese
Default                                  : Yes
Forced                                   : No
Color range                              : Limited
Matrix coefficients                      : BT.709

Audio
ID                                       : 2
Format                                   : FLAC
Format/Info                              : Free Lossless Audio Codec
Codec ID                                 : A_FLAC
Duration                                 : 23 min 26 s
Bit rate mode                            : Variable
Bit rate                                 : 570 kb/s
Channel(s)                               : 2 channels
Sampling rate                            : 48.0 kHz
Frame rate                               : 11.719 FPS (4096 SPF)
Bit depth                                : 16 bits
Stream size                              : 95.6 MiB (7%)
Title                                    : SCY
Writing library                          : libFLAC 1.3.2 (UTC 2017-01-01)
Language                                 : Japanese
Default                                  : Yes
Forced                                   : No

Text
ID                                       : 3
Format                                   : ASS
Codec ID                                 : S_TEXT/ASS
Codec ID/Info                            : Advanced Sub Station Alpha
Duration                                 : 22 min 58 s
Bit rate                                 : 125 b/s
Count of elements                        : 298
Compression mode                         : Lossless
Stream size                              : 21.2 KiB (0%)
Title                                    : (Modified) Doki
Language                                 : English
Default                                  : Yes
Forced                                   : No

Menu
00:00:00.000                             : en:Prologue
00:02:29.024                             : en:OP
00:03:58.989                             : en:Main
00:20:25.057                             : en:ED
00:21:53.812                             : en:Epilogue
00:22:55.000                             : en:Preview